<svg width="508" height="348" viewBox="0 0 508 348" fill="none" xmlns="http://www.w3.org/2000/svg">
<path d="M0 220.744C0 243.89 18.7786 262.654 41.9432 262.654H245.619C246.581 277.549 247.785 292.433 249.231 307.299L250.475 320.09C252.498 340.888 274.6 353.342 293.459 344.312C370.127 307.598 439.534 257.358 498.341 196.008L499.598 194.697C510.801 183.01 510.801 164.578 499.598 152.891L498.341 151.58C439.534 90.2299 370.127 39.9899 293.459 3.27643C274.6 -5.75413 252.498 6.70093 250.475 27.4983L249.231 40.2891C247.785 55.1556 246.581 70.0397 245.619 84.9355L41.9432 84.9355C18.7787 84.9355 0 103.699 0 126.845V220.744Z" fill="black"/>
</svg>
